<svg xmlns="http://www.w3.org/2000/svg" width="173.103" height="173.103" viewBox="0 0 173.103 173.103"><defs><style>.a{fill:#707070;}</style></defs><g transform="translate(24.137 625.137)"><g transform="translate(-24.137 -625.137)"><path class="a" d="M77.733,54.095V10.819A10.851,10.851,0,0,0,66.914,0H12.819A10.851,10.851,0,0,0,2,10.819V54.095H12.819A21.66,21.66,0,0,1,34.457,75.733v2.9A21.659,21.659,0,0,1,45.276,97.371V173.1H66.914V97.371A21.642,21.642,0,0,1,77.733,78.643ZM23.638,43.276H12.819V32.457H23.638Zm0-21.638H12.819V10.819H23.638ZM45.276,43.276H34.457V32.457H45.276Zm0-21.638H34.457V10.819H45.276ZM66.914,64.914H56.095V54.095H66.914Zm0-21.638H56.095V32.457H66.914Zm0-21.638H56.095V10.819H66.914Z" transform="translate(19.638)"/><path class="a" d="M43.276,27.638V16.819A10.851,10.851,0,0,0,32.457,6H21.638A10.851,10.851,0,0,0,10.819,16.819V27.638A10.851,10.851,0,0,0,0,38.457V114.19H54.095V38.457A10.851,10.851,0,0,0,43.276,27.638ZM21.638,92.552H10.819V81.733H21.638Zm0-21.638H10.819V60.095H21.638Zm0-21.638H10.819V38.457H21.638ZM43.276,92.552H32.457V81.733H43.276Zm0-21.638H32.457V60.095H43.276Zm0-21.638H32.457V38.457H43.276Z" transform="translate(0 58.914)"/><path class="a" d="M73.914,76.733V44.276A10.851,10.851,0,0,0,63.095,33.457H52.763V6.409a5.409,5.409,0,1,0-10.819,0V33.457H30.638A10.851,10.851,0,0,0,19.819,44.276V76.733A10.851,10.851,0,0,0,9,87.552v75.733H84.733V87.552A10.851,10.851,0,0,0,73.914,76.733ZM52.276,44.276H63.095V55.095H52.276Zm-21.638,0H41.457V55.095H30.638Zm0,97.371H19.819V130.827H30.638Zm0-21.638H19.819V109.19H30.638Zm0-21.638H19.819V87.552H30.638Zm0-32.457H41.457V76.733H30.638Zm21.638,75.733H41.457V130.827H52.276Zm0-21.638H41.457V109.19H52.276Zm0-21.638H41.457V87.552H52.276Zm0-32.457H63.095V76.733H52.276Zm21.638,75.733H63.095V130.827H73.914Zm0-21.638H63.095V109.19H73.914Zm0-21.638H63.095V87.552H73.914Z" transform="translate(88.371 9.819)"/></g></g></svg>