<svg xmlns="http://www.w3.org/2000/svg" width="42.094" height="56.065" viewBox="0 0 42.094 56.065"><g transform="translate(0)"><g transform="translate(0 0)"><circle cx="1.754" cy="1.754" r="1.754" transform="translate(24.555 42.034)"/><circle cx="1.754" cy="1.754" r="1.754" transform="translate(14.031 24.494)"/><path d="M32.785,12.318A107.464,107.464,0,0,1,24.559.82a1.822,1.822,0,0,0-3.02,0,107.989,107.989,0,0,1-8.229,11.5C7.493,19.737,2,26.746,2,35.035a21.047,21.047,0,1,0,42.094,0C44.094,26.746,38.6,19.737,32.785,12.318ZM17.785,21a5.262,5.262,0,1,1-5.262,5.262A5.268,5.268,0,0,1,17.785,21ZM28.309,49.066A5.262,5.262,0,1,1,33.57,43.8,5.268,5.268,0,0,1,28.309,49.066Zm4.75-21.559L15.519,45.046a1.755,1.755,0,0,1-2.484-2.48L30.575,25.027a1.755,1.755,0,0,1,2.484,2.48Z" transform="translate(-2 -0.017)"/></g></g></svg>