<svg xmlns="http://www.w3.org/2000/svg" viewBox="0 0 49.89 44.04"><g transform="translate(126.191 -22.537)"><g transform="translate(-131 13.53)"><path d="M19.547,19.521a3.69,3.69,0,1,1,3.689,3.689,3.689,3.689,0,0,1-3.689-3.689M54.7,53.047,51.532,40.876s-2.824-9.609-14.821-10.432l-.525,0V29.073a11.572,11.572,0,0,0,1.288-.524,14.8,14.8,0,0,0,1.506-.768l-.071-.049a10.107,10.107,0,0,0,4.644-8.378c0-5.714-5.028-10.346-11.231-10.346a11.768,11.768,0,0,0-7.133,2.355A8.572,8.572,0,0,1,28.524,26.4,8.7,8.7,0,0,1,25.7,27.846,10.585,10.585,0,0,0,29,29.256v1.229l-1.011.006a17.767,17.767,0,0,0-12.8,5.205l3.376-8.96a10.934,10.934,0,0,1-2.034-1.653l2.128-1.409a6.2,6.2,0,1,0-1.274-2.143l-1.8,1.192c-.859-.866-2.863-.656-4.673.543s-2.789,2.962-2.326,4.09l-1.808,1.2.007.01a1.239,1.239,0,0,0,1.361,2.056l.008.01L11,28.744l-5.5,16.1c-.824,1.831-1.071,4.206.116,5.839a4.654,4.654,0,0,0,3.816,1.945,5.052,5.052,0,0,0,3.655-2.1l5.829-9.711-.99,12.235H44.621l.467-7.817,1.622,7.817H54.7Z"/></g></g></svg>