<svg xmlns="http://www.w3.org/2000/svg" width="11.58" height="14.866" viewBox="0 0 11.58 14.866"><defs><style>.a{fill:#ce1e1e;}</style></defs><g transform="translate(11.58 14.866) rotate(180)"><path class="a" d="M6.792,14.444l4.366-4.35A1.427,1.427,0,0,0,9.139,8.075L7.214,10V1.424a1.424,1.424,0,1,0-2.848,0V10L2.441,8.09a1.417,1.417,0,0,0-2.019,0,1.412,1.412,0,0,0-.423,1,1.386,1.386,0,0,0,.423,1l4.35,4.35a1.423,1.423,0,0,0,1,.423A1.46,1.46,0,0,0,6.792,14.444Z" transform="translate(0)"/></g></svg>