<svg xmlns="http://www.w3.org/2000/svg" width="48.747" height="60.013" viewBox="0 0 48.747 60.013"><defs><style>.a{fill:#ce1e1e;}</style></defs><g transform="translate(-796 -530)"><path class="a" d="M11.837,25.173l7.609-7.582a2.488,2.488,0,0,0-3.518-3.518l-3.355,3.355V2.482a2.482,2.482,0,1,0-4.964,0V17.428L4.255,14.1a2.469,2.469,0,0,0-3.518,0A2.461,2.461,0,0,0,0,15.846a2.415,2.415,0,0,0,.736,1.746l7.582,7.582a2.48,2.48,0,0,0,1.745.736A2.544,2.544,0,0,0,11.837,25.173Z" transform="translate(844.747 568.218) rotate(180)"/><g transform="translate(1650 449.68)"><g transform="translate(-874 70)"><path d="M43.461,46.059V19.7a9.384,9.384,0,1,0-18.769,0V46.059A13.467,13.467,0,0,0,20,56.257a14.077,14.077,0,0,0,28.153,0,13.467,13.467,0,0,0-4.692-10.2Zm-9.384,20.8A10.792,10.792,0,0,1,23.128,56.272a10.385,10.385,0,0,1,4.082-8.227l.61-.469V19.7a6.256,6.256,0,1,1,12.513,0V47.56l.61.469a10.385,10.385,0,0,1,4.082,8.243A10.792,10.792,0,0,1,34.077,66.861Z" transform="translate(0 0)"/><path d="M32.823,47.587v-30.7a1.564,1.564,0,0,0-3.128,0v30.7A5.678,5.678,0,0,0,25,53.452a6.256,6.256,0,1,0,12.513,0A5.678,5.678,0,0,0,32.823,47.587Z" transform="translate(2.818 2.82)"/></g></g></g></svg>