<svg xmlns="http://www.w3.org/2000/svg" width="61.171" height="64.99" viewBox="0 0 61.171 66.99"><defs><style>.a{fill:#919191;}.b{fill:#81e4ec;}</style></defs><g transform="translate(-8 -4.005)"><g transform="translate(8 4.005)"><path class="a" d="M38.586,956.367a17.452,17.452,0,0,0-17.227,14.61,14.567,14.567,0,0,0,1.206,29.084H56.791a12.38,12.38,0,0,0,0-24.76h-.8a17.47,17.47,0,0,0-17.409-18.934Z" transform="translate(-8 -956.367)"/></g></g><path class="b" d="M21.017,1005.158a1.459,1.459,0,0,0-1.161.728l-2.913,5.052a1.448,1.448,0,1,0,2.5,1.456l2.913-5.052a1.464,1.464,0,0,0-1.343-2.185Zm12.38,0a1.459,1.459,0,0,0-1.161.728l-2.913,5.052a1.448,1.448,0,1,0,2.5,1.456l2.913-5.052a1.464,1.464,0,0,0-1.343-2.185Zm12.38,0a1.459,1.459,0,0,0-1.161.728l-2.913,5.052a1.448,1.448,0,1,0,2.5,1.456l2.913-5.052a1.464,1.464,0,0,0-1.343-2.185Zm12.38,0a1.459,1.459,0,0,0-1.161.728l-2.913,5.052a1.448,1.448,0,1,0,2.5,1.456l2.913-5.052a1.464,1.464,0,0,0-1.343-2.185ZM23.93,1015.4a1.459,1.459,0,0,0-1.161.728l-2.913,5.052a1.448,1.448,0,1,0,2.5,1.456l2.913-5.052a1.464,1.464,0,0,0-1.343-2.185Zm12.38,0a1.459,1.459,0,0,0-1.161.728l-2.913,5.052a1.448,1.448,0,1,0,2.5,1.456l2.913-5.052a1.464,1.464,0,0,0-1.343-2.185Zm12.38,0a1.459,1.459,0,0,0-1.161.728l-2.913,5.052a1.448,1.448,0,1,0,2.5,1.456l2.913-5.052a1.464,1.464,0,0,0-1.343-2.185Z" transform="translate(-8 -956.367)"/></svg>