<svg xmlns="http://www.w3.org/2000/svg" width="120" height="94.137" viewBox="0 0 120 94.137"><defs><style>.a{font-size:16px;font-family:Arial-BoldMT, Arial;font-weight:700;}</style></defs><g transform="translate(-1682 -40.863)"><g transform="translate(1704.64 40.863)"><path d="M34.97,23.55V4.71A4.724,4.724,0,0,0,30.26,0H6.71A4.724,4.724,0,0,0,2,4.71V23.55H6.71a9.43,9.43,0,0,1,9.42,9.42v1.262a9.429,9.429,0,0,1,4.71,8.158V75.36h9.42V42.39a9.422,9.422,0,0,1,4.71-8.153ZM11.42,18.84H6.71V14.13h4.71Zm0-9.42H6.71V4.71h4.71Zm9.42,9.42H16.13V14.13h4.71Zm0-9.42H16.13V4.71h4.71Zm9.42,18.84H25.55V23.55h4.71Zm0-9.42H25.55V14.13h4.71Zm0-9.42H25.55V4.71h4.71Z" transform="translate(7.42)"/><path d="M18.84,15.42V10.71A4.724,4.724,0,0,0,14.13,6H9.42a4.724,4.724,0,0,0-4.71,4.71v4.71A4.724,4.724,0,0,0,0,20.13V53.1H23.55V20.13A4.724,4.724,0,0,0,18.84,15.42ZM9.42,43.68H4.71V38.97H9.42Zm0-9.42H4.71V29.55H9.42Zm0-9.42H4.71V20.13H9.42Zm9.42,18.84H14.13V38.97h4.71Zm0-9.42H14.13V29.55h4.71Zm0-9.42H14.13V20.13h4.71Z" transform="translate(0 22.26)"/><path d="M37.26,33.97V19.84a4.724,4.724,0,0,0-4.71-4.71h-4.5V3.355a2.355,2.355,0,1,0-4.71,0V15.13H18.42a4.724,4.724,0,0,0-4.71,4.71V33.97A4.724,4.724,0,0,0,9,38.68V71.65H41.97V38.68A4.724,4.724,0,0,0,37.26,33.97ZM27.84,19.84h4.71v4.71H27.84Zm-9.42,0h4.71v4.71H18.42Zm0,42.39H13.71V57.52h4.71Zm0-9.42H13.71V48.1h4.71Zm0-9.42H13.71V38.68h4.71Zm0-14.13h4.71v4.71H18.42Zm9.42,32.97H23.13V57.52h4.71Zm0-9.42H23.13V48.1h4.71Zm0-9.42H23.13V38.68h4.71Zm0-14.13h4.71v4.71H27.84Zm9.42,32.97H32.55V57.52h4.71Zm0-9.42H32.55V48.1h4.71Zm0-9.42H32.55V38.68h4.71Z" transform="translate(33.39 3.71)"/></g><text class="a" transform="translate(1742 131)"><tspan x="-59.137" y="0">Select your city</tspan></text></g></svg>