<svg xmlns="http://www.w3.org/2000/svg" width="61.171" height="64" viewBox="0 0 61.171 64"><defs><style>.a{fill:#919191;}.b{fill:#fff;}</style></defs><g transform="translate(-632 -89)"><g transform="translate(-461 -2323)"><g transform="translate(1085 2407.995)"><g transform="translate(8 4.005)"><path class="a" d="M38.586,956.367a17.452,17.452,0,0,0-17.227,14.61,14.567,14.567,0,0,0,1.206,29.084H56.791a12.38,12.38,0,0,0,0-24.76h-.8a17.47,17.47,0,0,0-17.409-18.934Z" transform="translate(-8 -956.367)"/></g></g></g><circle class="b" cx="3.5" cy="3.5" r="3.5" transform="translate(644 136)"/><circle class="b" cx="3.5" cy="3.5" r="3.5" transform="translate(654 136)"/><circle class="b" cx="3.5" cy="3.5" r="3.5" transform="translate(664 136)"/><circle class="b" cx="3.5" cy="3.5" r="3.5" transform="translate(674 136)"/><circle class="b" cx="3.5" cy="3.5" r="3.5" transform="translate(648 146)"/><circle class="b" cx="3.5" cy="3.5" r="3.5" transform="translate(658 146)"/><circle class="b" cx="3.5" cy="3.5" r="3.5" transform="translate(668 146)"/></g></svg>