<svg xmlns="http://www.w3.org/2000/svg" width="209" height="209" viewBox="0 0 209 209"><defs><style>.a{fill:#f0cf00;}</style></defs><g transform="translate(0)"><path class="a" d="M86.884,24.6a62.284,62.284,0,1,0,62.284,62.284A62.372,62.372,0,0,0,86.884,24.6Z" transform="translate(17.616 17.616)"/><path class="a" d="M54.187,29.625a8.888,8.888,0,0,0,8.787-8.787V11.287a8.787,8.787,0,1,0-17.574,0v9.551A8.764,8.764,0,0,0,54.187,29.625Z" transform="translate(50.313 -2.5)"/><path class="a" d="M24.224,36.831a8.767,8.767,0,0,0,12.608,0,8.762,8.762,0,0,0,0-12.417l-6.686-6.686A8.78,8.78,0,0,0,17.729,30.145Z" transform="translate(9.015 9.015)"/><path class="a" d="M29.625,54.187A8.888,8.888,0,0,0,20.838,45.4H11.287a8.787,8.787,0,1,0,0,17.574h9.551A8.764,8.764,0,0,0,29.625,54.187Z" transform="translate(-2.5 50.313)"/><path class="a" d="M24.315,74.729l-6.686,6.686a8.762,8.762,0,0,0,0,12.417,8.767,8.767,0,0,0,12.608,0l6.686-6.686a8.762,8.762,0,0,0,0-12.417A8.994,8.994,0,0,0,24.315,74.729Z" transform="translate(8.924 88.425)"/><path class="a" d="M54.187,83.3A8.888,8.888,0,0,0,45.4,92.087v9.551a8.787,8.787,0,0,0,17.574,0V92.087A8.764,8.764,0,0,0,54.187,83.3Z" transform="translate(50.313 98.575)"/><path class="a" d="M87.245,74.729A8.78,8.78,0,0,0,74.829,87.145l6.686,6.686a8.767,8.767,0,0,0,12.608,0,8.762,8.762,0,0,0,0-12.417Z" transform="translate(88.516 88.425)"/><path class="a" d="M101.638,45.4H92.087a8.787,8.787,0,0,0,0,17.574h9.551a8.787,8.787,0,0,0,0-17.574Z" transform="translate(98.575 50.313)"/><path class="a" d="M80.942,39.406a8.989,8.989,0,0,0,6.3-2.674l6.686-6.686A8.78,8.78,0,1,0,81.515,17.629l-6.686,6.686a8.762,8.762,0,0,0,0,12.417A7.6,7.6,0,0,0,80.942,39.406Z" transform="translate(88.516 8.924)"/></g></svg>