<svg xmlns="http://www.w3.org/2000/svg" width="61.171" height="61.666" viewBox="0 0 61.171 61.666"><defs><style>.a{fill:#919191;}.b{fill:#ffce00;}</style></defs><g transform="translate(-481 -80)"><g transform="translate(-461 -2323)"><g transform="translate(942 2403)"><g transform="translate(-8 -4.005)"><g transform="translate(8 4.005)"><path class="a" d="M38.586,956.367a17.452,17.452,0,0,0-17.227,14.61,14.567,14.567,0,0,0,1.206,29.084H56.791a12.38,12.38,0,0,0,0-24.76h-.8a17.47,17.47,0,0,0-17.409-18.934Z" transform="translate(-8 -956.367)"/></g></g></g><g transform="translate(547 2421.31)"><g transform="translate(375 15)"><path class="b" d="M34.075,19H29.284l.436-4.659a.607.607,0,0,0-.447-.61.745.745,0,0,0-.791.206l-6.488,8.048a.544.544,0,0,0-.041.627.707.707,0,0,0,.614.321h4.906l-.5,4.76a.608.608,0,0,0,.459.625l.229.04a.713.713,0,0,0,.573-.282l6.419-8.129a.544.544,0,0,0,.041-.627A.707.707,0,0,0,34.075,19Z" transform="translate(4)"/></g><g transform="translate(397 15)"><path class="b" d="M34.075,19H29.284l.436-4.659a.607.607,0,0,0-.447-.61.745.745,0,0,0-.791.206l-6.488,8.048a.544.544,0,0,0-.041.627.707.707,0,0,0,.614.321h4.906l-.5,4.76a.608.608,0,0,0,.459.625l.229.04a.713.713,0,0,0,.573-.282l6.419-8.129a.544.544,0,0,0,.041-.627A.707.707,0,0,0,34.075,19Z"/></g><g transform="translate(415 15)"><path class="b" d="M34.075,19H29.284l.436-4.659a.607.607,0,0,0-.447-.61.745.745,0,0,0-.791.206l-6.488,8.048a.544.544,0,0,0-.041.627.707.707,0,0,0,.614.321h4.906l-.5,4.76a.608.608,0,0,0,.459.625l.229.04a.713.713,0,0,0,.573-.282l6.419-8.129a.544.544,0,0,0,.041-.627A.707.707,0,0,0,34.075,19Z"/></g></g></g></g></svg>