<svg xmlns="http://www.w3.org/2000/svg" width="73.062" height="46.148" viewBox="0 0 73.062 46.148"><path d="M76.062,24.459c0-5.1-4.857-9.23-10.824-9.23s-10.824,4.128-10.824,9.23h5.412c0-2.55,2.4-4.615,5.412-4.615,2.99,0,5.412,2.049,5.412,4.615,0,2.55-2.408,4.615-5.423,4.615H3v4.615H65.243c5.975,0,10.819-4.142,10.819-9.23ZM51.708,15.23c0-5.1-4.857-9.23-10.824-9.23S30.06,10.128,30.06,15.223v.007h5.412c0-2.55,2.4-4.615,5.412-4.615,2.99,0,5.412,2.049,5.412,4.615,0,2.55-2.427,4.615-5.428,4.615H8.412v4.615H40.895c5.972,0,10.813-4.142,10.813-9.23h0Zm13.53,30c0,3.823-3.645,6.922-8.118,6.922h0c-4.484,0-8.118-3.1-8.118-6.9v-.021h5.412a2.525,2.525,0,0,0,2.706,2.307h0a2.525,2.525,0,0,0,2.706-2.307h0A2.54,2.54,0,0,0,57.1,42.918H19.236V38.3H57.12c4.484,0,8.118,3.108,8.118,6.922Z" transform="translate(-3 -6)"/></svg>