<svg xmlns="http://www.w3.org/2000/svg" width="52.32" height="33.047" viewBox="0 0 52.32 33.047"><defs><style>.a{fill:#919191;}</style></defs><g transform="translate(-63 44)"><path class="a" d="M55.32,19.219c0-3.65-3.478-6.609-7.751-6.609s-7.751,2.956-7.751,6.609h3.876a3.615,3.615,0,0,1,3.876-3.3,3.616,3.616,0,0,1,3.876,3.3,3.62,3.62,0,0,1-3.883,3.3H3v3.3H47.573c4.279,0,7.747-2.966,7.747-6.609ZM37.88,12.609C37.88,8.959,34.4,6,30.129,6s-7.751,2.956-7.751,6.6v0h3.876a3.615,3.615,0,0,1,3.876-3.3A3.616,3.616,0,0,1,34,12.609a3.63,3.63,0,0,1-3.887,3.3H6.876v3.3H30.137c4.277,0,7.743-2.966,7.743-6.609h0Zm9.689,21.48c0,2.738-2.61,4.957-5.813,4.957h0c-3.211,0-5.813-2.217-5.813-4.942V34.09h3.876a1.808,1.808,0,0,0,1.938,1.652h0a1.808,1.808,0,0,0,1.938-1.652h0a1.819,1.819,0,0,0-1.951-1.652H14.627v-3.3H41.756c3.211,0,5.813,2.226,5.813,4.957Z" transform="translate(60 -50)"/></g></svg>